<?xml version="1.0" encoding="UTF-8"?> <svg xmlns="http://www.w3.org/2000/svg" width="405" height="405" viewBox="0 0 405 405" fill="none"><path d="M176.193 62.7268L277.491 58.4392V55.3438L176.143 61.7551L116.071 65.2913L56.0001 68.5972L116.091 65.5518L176.193 62.7268Z" fill="#00404C"></path><path d="M237.104 162.373L152.96 164.807L153.25 174.825L237.394 172.39L237.104 162.373ZM154.219 173.793L153.99 165.779L236.134 163.405L236.364 171.419L154.219 173.793Z" fill="#00404C"></path><path d="M199.106 222.529L198.926 216.017L197.926 216.047L198.086 221.557L192.588 221.717L192.618 222.719L199.106 222.529Z" fill="#00404C"></path><path d="M191.368 179.353L191.398 180.354L196.886 180.194L197.046 185.704L198.046 185.674L197.866 179.162L191.368 179.353Z" fill="#00404C"></path><path d="M198.338 195.79L197.338 195.819L197.629 205.933L198.628 205.904L198.338 195.79Z" fill="#00404C"></path><path d="M238.803 221.387L238.623 214.875L237.623 214.906L237.773 220.415L232.285 220.566L232.315 221.567L238.803 221.387Z" fill="#00404C"></path><path d="M224.625 220.773L216.971 220.998L217 222L224.655 221.775L224.625 220.773Z" fill="#00404C"></path><path d="M209.342 222.238L209.312 221.237L203.824 221.387L203.664 215.887L202.664 215.917L202.854 222.419L209.342 222.238Z" fill="#00404C"></path><path d="M203.08 195.654L202.081 195.683L202.371 205.796L203.371 205.767L203.08 195.654Z" fill="#00404C"></path><path d="M208.093 178.862L201.605 179.052L201.785 185.564L202.784 185.534L202.634 180.024L208.123 179.864L208.093 178.862Z" fill="#00404C"></path><path d="M223.406 178.412L215.752 178.637L215.781 179.639L223.436 179.414L223.406 178.412Z" fill="#00404C"></path><path d="M236.584 179.042L236.744 184.552L237.743 184.522L237.554 178.02L231.066 178.201L231.096 179.202L236.584 179.042Z" fill="#00404C"></path><path d="M238.036 194.635L237.036 194.664L237.327 204.778L238.327 204.749L238.036 194.635Z" fill="#00404C"></path><path d="M117.121 91.8581L165.956 90.4556L165.816 85.4468L116.971 86.8493L117.121 91.8581ZM164.836 86.4786L164.916 89.4839L118.091 90.8263L118.011 87.821L164.836 86.4786Z" fill="#00404C"></path><path d="M170.085 90.3354L218.939 88.9229L218.799 83.9141L169.955 85.3266L170.085 90.3354ZM217.8 84.9459L217.88 87.9512L171.054 89.3036L170.964 86.2983L217.8 84.9459Z" fill="#00404C"></path><path d="M324.538 81.3722L223.412 84.2913L223.527 88.2967L324.654 85.3776L324.538 81.3722Z" fill="#00404C"></path><path d="M81.209 79.5298L60.0144 80.1416L60.0815 82.4748L81.2761 81.863L81.209 79.5298Z" fill="#00404C"></path><path d="M81.3624 84.8626L60.1678 85.4744L60.2349 87.8075L81.4295 87.1957L81.3624 84.8626Z" fill="#00404C"></path><path d="M81.5257 90.1953L60.3311 90.8071L60.3982 93.1403L81.5928 92.5285L81.5257 90.1953Z" fill="#00404C"></path><path d="M117.301 80.5282L280.2 75.8199V78.7551H282.2V75.7698L324.337 74.5477L324.287 72.6543L282.2 73.8765V70.5506V66.7339H280.2V70.5506V73.9266L117.241 78.6349L117.301 80.5282Z" fill="#00404C"></path><path d="M145.772 197.004C145.602 197.184 145.442 197.364 145.292 197.555C145.142 197.745 144.982 197.925 144.832 198.126C144.682 198.326 144.442 198.677 144.253 198.967C143.915 199.501 143.615 200.056 143.353 200.63C143.223 200.921 143.103 201.201 142.993 201.492L142.933 201.692C142.843 201.933 142.763 202.173 142.683 202.413C142.603 202.654 142.503 203.065 142.433 203.415C142.438 203.445 142.438 203.475 142.433 203.505C142.353 203.906 142.293 204.311 142.253 204.717C142.253 204.828 142.253 204.938 142.253 205.048C142.253 205.389 142.253 205.739 142.253 206.05C142.253 206.23 142.253 206.41 142.253 206.591C142.253 206.771 142.253 207.192 142.323 207.492C142.393 207.793 142.323 207.943 142.383 208.164C142.443 208.384 142.503 208.795 142.573 209.165C142.643 209.536 142.643 209.566 142.693 209.766C142.831 210.293 142.998 210.811 143.193 211.319C143.601 212.387 144.145 213.397 144.812 214.324C145.398 215.117 146.068 215.843 146.812 216.488C147.142 216.779 147.482 217.059 147.811 217.32C149.65 218.686 151.802 219.568 154.069 219.884C154.269 219.884 154.469 219.884 154.679 219.944C154.889 220.004 155.339 219.994 155.679 219.994C156.807 220.023 157.933 219.898 159.028 219.624C159.268 219.624 159.488 219.494 159.718 219.423L160.547 219.173C160.787 219.083 161.007 218.973 161.227 218.882C161.447 218.792 161.747 218.672 161.997 218.542C162.247 218.412 162.347 218.342 162.517 218.241C162.687 218.141 163.087 217.931 163.357 217.761L163.677 217.52C163.996 217.3 164.316 217.069 164.606 216.829L164.726 216.709C166.979 214.78 168.541 212.166 169.175 209.266C169.175 209.266 169.175 209.175 169.175 209.125C169.252 208.741 169.308 208.353 169.345 207.963L169.405 207.583C169.405 207.262 169.405 206.931 169.405 206.581C169.405 206.23 169.405 206.19 169.405 205.99C169.405 205.789 169.405 205.429 169.335 205.148C169.265 204.868 169.335 204.657 169.275 204.417C169.215 204.177 169.165 203.856 169.105 203.585C169.045 203.315 169.015 203.095 168.955 202.854C168.819 202.331 168.652 201.815 168.455 201.311C168.325 200.971 168.175 200.63 168.015 200.31L167.885 200.069C167.765 199.829 167.635 199.598 167.505 199.368L167.255 198.987L166.935 198.496C166.826 198.336 166.706 198.186 166.586 198.036L166.306 197.675C166.166 197.505 166.016 197.334 165.866 197.174L165.626 196.924L165.096 196.393L164.916 196.232C164.71 196.045 164.5 195.865 164.286 195.692L164.166 195.601C163.932 195.412 163.689 195.235 163.437 195.07C162.066 194.137 160.539 193.458 158.928 193.067H158.848L158.208 192.937L157.778 192.867C157.608 192.867 157.438 192.867 157.259 192.806C157.079 192.746 156.879 192.756 156.689 192.746H156.239H155.659C155.201 192.748 154.744 192.775 154.289 192.826C153.752 192.896 153.218 192.993 152.69 193.117C152.46 193.167 152.24 193.247 152.02 193.317C151.8 193.387 151.45 193.478 151.17 193.578C150.89 193.678 150.741 193.758 150.521 193.848C150.301 193.938 149.981 194.069 149.721 194.199L149.231 194.479C148.941 194.64 148.641 194.8 148.361 194.99C148.261 195.05 148.171 195.131 148.071 195.201C147.761 195.421 147.452 195.641 147.162 195.882L147.072 195.962C146.782 196.212 146.502 196.483 146.232 196.753C145.962 196.773 145.872 196.894 145.772 197.004ZM153.96 199.338L154.959 199.939L162.727 204.557L155.349 216.729L150.481 197.274L153.96 199.338Z" fill="#00404C"></path><path d="M247.97 240.36L247.82 235.151L246.821 235.181L247.001 241.392L253.799 241.192L253.769 240.19L247.97 240.36Z" fill="#00404C"></path><path d="M267.887 230.788L255.896 231.134L255.925 232.136L267.916 231.79L267.887 230.788Z" fill="#00404C"></path><path d="M326.526 32.3731C326.513 37.2454 328.328 41.9446 331.611 45.5387C334.893 49.1329 339.404 51.3596 344.248 51.7772C349.093 52.1947 353.917 50.7728 357.764 47.7932C361.611 44.8136 364.2 40.4941 365.018 35.6912C365.835 30.8883 364.822 25.9529 362.178 21.8636C359.535 17.7744 355.454 14.83 350.746 13.6143C346.038 12.3987 341.045 13.0006 336.759 15.3007C332.473 17.6008 329.206 21.4311 327.606 26.0319H325.606V28.0355H327.066C326.722 29.4561 326.541 30.9114 326.526 32.3731ZM335.733 26.4928C335.823 26.3325 335.923 26.1922 336.023 26.042C336.607 25.163 337.325 24.382 338.152 23.7279C339.744 22.3844 341.732 21.5999 343.81 21.4939C347.629 21.4238 351.418 24.4091 351.248 28.4362C351.24 30.0054 350.79 31.5403 349.949 32.864C353.058 34.0762 355.297 37.1315 357.896 39.2252C358.567 39.6837 359.099 40.3178 359.436 41.0585C359.588 41.4389 359.596 41.8623 359.458 42.2483C359.32 42.6343 359.045 42.9559 358.686 43.1522C357.916 43.4527 357.086 42.9218 356.417 42.4209L354.767 41.1587L348.539 36.4403C348.405 36.2744 348.239 36.1376 348.05 36.0381C347.862 35.9387 347.655 35.8787 347.443 35.8618C347.231 35.845 347.017 35.8716 346.815 35.94C346.614 36.0085 346.428 36.1173 346.27 36.26L346.14 36.3502C344.74 37.1809 343.112 37.5415 341.493 37.3793C339.875 37.2171 338.35 36.5406 337.143 35.4486C336.185 34.498 335.496 33.3106 335.145 32.0069C334.794 30.7031 334.793 29.3295 335.143 28.0255C335.276 27.4921 335.474 26.9773 335.733 26.4928Z" fill="#00404C"></path><path d="M378.11 228.78C376.191 226.327 373.498 224.6 370.472 223.881C368.883 223.551 367.603 223.481 366.223 223.3L362.145 222.83L357.056 222.249V225.675L361.805 226.125L365.894 226.506C367.233 226.646 368.703 226.736 369.792 226.947C372.17 227.45 374.304 228.752 375.84 230.638C377.377 232.524 378.224 234.88 378.24 237.315V238.227C378.24 238.537 378.19 238.898 378.16 239.229L377.97 241.282L377.59 245.379L376.83 253.574L375.311 269.973L369.183 335.579L365.984 368.347L365.144 376.541L364.734 380.628C364.647 381.985 364.416 383.328 364.044 384.635C363.187 387.219 361.495 389.443 359.236 390.956L359.096 391.057C356.79 392.539 354.055 393.203 351.328 392.94C351.688 392.94 352.048 392.99 352.398 393H353.148H353.467C353.725 392.988 353.982 392.961 354.237 392.92H354.557L355.247 392.79L355.737 392.659L356.237 392.519C356.642 392.389 357.039 392.235 357.426 392.058C357.676 391.948 357.916 391.838 358.156 391.708C358.396 391.578 358.566 391.487 358.756 391.377L359.166 391.147C361.507 389.642 363.27 387.385 364.164 384.745C364.55 383.424 364.788 382.063 364.874 380.688L365.314 376.601L366.184 368.417L369.742 335.579L377.27 270.153L379.159 253.794L380.099 245.62L380.579 241.533L380.809 239.529C380.809 239.178 380.899 238.858 380.929 238.527L380.999 237.385C381.039 234.271 380.02 231.237 378.11 228.78Z" fill="#00404C"></path><path d="M285.998 385.847L277.831 384.926L273.752 384.455C272.403 384.285 271.003 384.185 269.754 383.904C267.173 383.308 264.874 381.845 263.237 379.758C261.6 377.672 260.725 375.087 260.756 372.434C260.756 371.823 260.846 371.182 260.916 370.53L295.506 366.634L297.025 366.784V366.453L299.874 366.133L294.826 321.404L301.634 322.115L301.744 321.113L294.746 320.372V320.252L294.206 320.322L291.917 320.051L291.857 320.552L276.212 322.335L276.511 319.45L281.98 320.021L282.08 319.019L275.622 318.338L275.192 322.436L266.335 323.437L271.983 274.351L273.452 261.067L274.202 254.305L275.272 244.628L275.382 243.626L275.602 241.623L275.712 240.561L275.822 239.559L276.471 233.438L276.921 229.391L277.031 228.389L277.091 227.868L277.151 227.448C277.151 227.267 277.221 227.097 277.251 226.917C277.321 226.576 277.411 226.246 277.501 225.915C277.504 225.868 277.504 225.822 277.501 225.775C278.245 223.578 279.702 221.694 281.64 220.425L282.03 220.195C282.853 219.709 283.742 219.344 284.669 219.113C285.819 218.826 287.009 218.738 288.188 218.853L289.427 218.973L297.075 219.754L320.908 222.128L341.311 224.132L348.189 224.813L349.409 224.933V221.377L347.999 221.217L346.76 198.607L343.231 138.421L339.442 78.2343L338.492 63.2077V62.7369L338.432 62.1559C338.396 61.7639 338.329 61.3754 338.232 60.9938C338.076 60.2284 337.828 59.485 337.492 58.7799C336.844 57.3715 335.911 56.113 334.753 55.0834C333.009 53.5205 330.821 52.5432 328.495 52.2885C328.114 52.2432 327.73 52.2231 327.346 52.2283C326.956 52.2283 326.556 52.2283 326.276 52.2283L296.285 54.1417L284.819 54.863V58.0887L296.475 57.5978L326.526 56.3356C326.796 56.3211 327.066 56.3211 327.336 56.3356C327.575 56.3207 327.816 56.3207 328.055 56.3356C328.533 56.3981 329.002 56.5123 329.455 56.6762C330.371 57.0198 331.206 57.5522 331.904 58.239C332.604 58.8983 333.159 59.6967 333.534 60.5831C333.721 61.0168 333.859 61.4705 333.944 61.9355C334.002 62.1649 334.036 62.4001 334.044 62.6367V62.9873V63.4582L334.673 78.4847L337.233 138.721L340.042 198.957L341.121 220.445L326.366 218.813L329.655 218.722L328.405 175.356L328.235 169.726L327.945 159.708L243.802 162.142L244.082 171.799L244.271 178.421L245.501 221.147L276.002 220.265C275.038 221.527 274.295 222.942 273.802 224.452C273.652 224.933 273.532 225.454 273.422 225.925L152.78 229.411L177.902 223.1L182.101 222.98V222.058V221.988L171.824 180.916L180.921 180.655V179.653L171.604 179.924V179.844L171.234 179.934H170.454V180.104L154.579 184.111L154.499 181.406L159.958 181.306V180.305L153.46 180.495L153.58 184.412L146.832 186.115L146.672 180.695H146.592L146.432 175.075H146.512L146.222 165.058L61.9882 167.432L62.2781 177.449L62.448 183.069L63.6976 226.436L137.825 224.302L139.214 229.842L64.3874 232.006H63.8876L64.4274 250.699L271.463 244.688L270.463 254.475L216.94 257.671L96.8373 265.285L66.8467 267.198C65.7716 267.301 64.6868 267.186 63.6577 266.857C62.6389 266.538 61.7011 266.001 60.9085 265.285C60.107 264.569 59.4605 263.696 59.0091 262.72C58.7815 262.234 58.6105 261.723 58.4993 261.197C58.4276 260.935 58.3807 260.667 58.3593 260.396V259.995V259.524L57.3596 244.498L53.5008 184.312L51.8213 155.611C62.3381 155.611 72.8515 155.611 83.3615 155.611C102.745 155.611 122.129 155.511 141.513 155.401L170.584 155.16L199.665 154.789C209.352 154.669 219.049 154.549 228.736 154.339L234.734 154.218H259.017V100.253H48.6723L48.3224 94.0121L47.5027 78.9856C47.3647 77.7368 47.4597 76.4731 47.7826 75.259C48.1153 74.0443 48.7013 72.9142 49.5021 71.9432C50.2903 70.9623 51.2749 70.1578 52.3924 69.5815C53.5098 69.0053 54.7354 68.67 55.99 68.5973C54.0958 68.7018 52.2813 69.396 50.7993 70.5829C49.3174 71.7698 48.2419 73.3905 47.7226 75.2189C47.3935 76.4387 47.2918 77.7088 47.4227 78.9656L48.1825 93.9921L48.5024 100.223H24.2699V126.55V128.934L24 154.259V155.441H25.2196C33.8836 155.494 42.5476 155.527 51.2115 155.541L52.5511 184.312L55.1103 244.548L55.7401 259.575V260.045L55.7901 260.576C55.8148 260.933 55.8649 261.288 55.9401 261.638C56.0792 262.345 56.2972 263.034 56.5899 263.692C57.1551 265.029 57.9931 266.233 59.0502 267.227C60.1073 268.221 61.36 268.982 62.728 269.462C64.0865 269.928 65.5239 270.119 66.9566 270.023L96.9773 268.801L217.21 263.712L269.814 261.237L268.564 274L263.945 323.728L248.95 325.431L254.128 371.302L259.557 370.681C259.557 371.242 259.467 371.823 259.457 372.424C259.472 375.314 260.471 378.113 262.288 380.357C264.106 382.601 266.634 384.157 269.454 384.766C270.863 385.036 272.213 385.096 273.582 385.236L277.671 385.617L285.849 386.408L318.548 389.614L351.238 392.95L318.568 389.464L285.998 385.847ZM145.202 166.029L145.432 174.043L63.2878 176.418L63.0578 168.404L145.202 166.029ZM147.022 194.51L147.632 194.079L147.921 193.889C148.694 193.39 149.515 192.971 150.371 192.636L150.591 192.556C150.871 192.456 151.16 192.366 151.45 192.286C151.74 192.206 151.97 192.115 152.23 192.055C152.49 191.995 152.83 191.925 153.14 191.865C153.45 191.805 153.64 191.765 153.89 191.735H154.06C154.517 191.68 154.978 191.65 155.439 191.645C155.929 191.636 156.42 191.653 156.909 191.695H157.249C157.648 191.695 158.048 191.805 158.448 191.885C158.559 191.899 158.669 191.919 158.778 191.945C159.218 192.035 159.638 192.155 160.058 192.286L160.777 192.546C160.957 192.606 161.137 192.676 161.317 192.757C161.587 192.867 161.857 192.987 162.117 193.117L162.407 193.267C162.951 193.55 163.479 193.864 163.986 194.209L164.266 194.399C164.493 194.573 164.723 194.753 164.956 194.94L165.406 195.321C165.596 195.491 165.786 195.652 165.966 195.832C166.146 196.012 166.586 196.463 166.876 196.834L167.075 197.104C167.335 197.415 167.575 197.745 167.815 198.106L167.995 198.376C168.267 198.789 168.514 199.217 168.735 199.659C168.945 200.069 169.135 200.48 169.305 200.911V201.081C169.395 201.322 169.465 201.582 169.545 201.833C169.625 202.083 169.735 202.404 169.815 202.694C169.895 202.985 169.925 203.235 169.975 203.505C170.025 203.776 170.095 204.087 170.135 204.387C170.135 204.457 170.135 204.537 170.135 204.607C170.241 205.525 170.258 206.451 170.185 207.372V207.713C170.185 208.104 170.095 208.494 170.025 208.875C170.025 209.005 169.975 209.145 169.945 209.276C169.855 209.736 169.735 210.187 169.605 210.628C169.545 210.798 169.475 210.969 169.415 211.149C169.355 211.329 169.215 211.71 169.095 211.98C168.975 212.251 168.925 212.381 168.825 212.582C168.725 212.782 168.535 213.173 168.375 213.453C168.305 213.573 168.255 213.704 168.175 213.824C168.095 213.944 168.025 214.044 167.945 214.164C167.865 214.285 167.585 214.715 167.395 214.976C167.205 215.236 167.135 215.326 166.995 215.497C166.856 215.667 166.606 215.957 166.406 216.178C166.206 216.398 166.166 216.458 166.036 216.589C165.719 216.92 165.386 217.234 165.036 217.53C164.934 217.619 164.827 217.703 164.716 217.781C164.406 218.021 164.096 218.252 163.767 218.472L163.487 218.662C162.71 219.162 161.886 219.585 161.027 219.924L160.817 219.995L159.948 220.275L159.178 220.506C158.878 220.576 158.568 220.626 158.258 220.686C157.948 220.746 157.768 220.786 157.518 220.816H157.339C157.039 220.816 156.729 220.816 156.429 220.876H155.869H155.489C155.149 220.876 154.819 220.876 154.489 220.876H154.349H154.179C153.75 220.826 153.32 220.756 152.89 220.676L152.55 220.606C152.12 220.516 151.69 220.395 151.27 220.265L150.701 220.065L150.021 219.794L149.351 219.504C149.021 219.343 148.701 219.173 148.351 218.983C148.001 218.792 147.901 218.712 147.672 218.562L147.592 218.512L147.192 218.242C146.992 218.091 146.782 217.951 146.582 217.791C146.272 217.553 145.975 217.299 145.692 217.029L145.302 216.649C145.062 216.408 144.822 216.158 144.602 215.897C144.522 215.807 144.433 215.717 144.363 215.627C144.043 215.247 143.746 214.849 143.473 214.435L143.393 214.315C143.112 213.89 142.859 213.448 142.633 212.992V212.932C142.433 212.521 142.233 212.111 142.073 211.69L142.013 211.52C141.933 211.289 141.863 211.049 141.783 210.808C141.703 210.568 141.583 210.207 141.513 209.897C141.443 209.586 141.403 209.386 141.353 209.135C141.303 208.885 141.234 208.524 141.194 208.214C141.194 208.134 141.194 208.064 141.194 207.993C141.089 207.079 141.069 206.157 141.134 205.239C141.134 205.118 141.134 204.998 141.134 204.878C141.134 204.497 141.224 204.117 141.294 203.736C141.294 203.596 141.294 203.455 141.363 203.315C141.463 202.864 141.573 202.424 141.713 201.983C141.773 201.802 141.833 201.622 141.903 201.452C141.973 201.282 142.103 200.901 142.213 200.62L142.493 200.009C142.623 199.729 142.773 199.448 142.933 199.168L143.133 198.777C143.213 198.657 143.303 198.547 143.383 198.417C143.463 198.286 143.723 197.886 143.913 197.625L144.323 197.104C144.512 196.874 144.702 196.653 144.902 196.433L145.282 196.012C145.502 195.792 145.742 195.571 145.972 195.361L146.292 195.081L146.622 194.82L147.022 194.51ZM64.6973 225.384L63.5077 184.011L145.652 181.647L145.782 186.285L129.377 190.402L137.605 223.27L64.6973 225.384ZM25.2696 101.255H48.5624V101.315H48.7223V101.255H257.997V153.257H228.266C218.729 153.096 209.192 153.026 199.655 152.956L170.584 152.726L141.503 152.626C122.119 152.626 102.745 152.626 83.3615 152.706C72.7981 152.706 62.2314 152.763 51.6614 152.876V152.806H51.0516V152.886C42.8341 152.946 34.61 153.02 26.3793 153.106L25.7595 128.974L25.2996 116.281V115.61L25.2696 101.255ZM327.006 160.78L327.236 168.794L245.091 171.168L244.861 163.154L327.006 160.78ZM246.501 220.155L245.311 178.792L327.456 176.418L328.645 217.791L319.138 218.061L288.648 214.805C285.444 214.5 282.232 215.287 279.53 217.039C278.57 217.682 277.687 218.435 276.901 219.283L246.501 220.155ZM65.3971 249.687L64.9173 232.998L139.484 230.844L139.954 232.687L148.301 230.583L273.262 226.977L273.202 227.408V227.919L273.092 228.92L272.683 233.018L272.003 239.649L265.795 239.83V240.831L271.873 240.651L271.813 241.202L271.573 243.706L65.3971 249.687ZM258.987 345.486C259.055 342.088 260.239 338.806 262.356 336.15V336.1C262.506 335.909 262.646 335.719 262.806 335.539C263.175 335.115 263.565 334.711 263.975 334.327C264.355 333.986 264.745 333.665 265.155 333.325C266.792 332.087 268.663 331.194 270.653 330.7C272.876 330.144 275.194 330.089 277.441 330.539C279.687 330.989 281.806 331.932 283.645 333.302C285.484 334.671 286.997 336.431 288.076 338.457C289.154 340.482 289.771 342.722 289.881 345.015C289.992 347.308 289.594 349.597 288.716 351.717C287.838 353.838 286.502 355.737 284.803 357.277C283.105 358.818 281.087 359.962 278.894 360.627C276.701 361.292 274.389 361.462 272.123 361.124C271.793 361.074 271.463 361.024 271.123 360.954C267.771 360.225 264.755 358.404 262.546 355.774C262.296 355.484 262.046 355.173 261.816 354.863C261.586 354.552 261.326 354.132 261.096 353.751C259.638 351.247 258.907 348.384 258.987 345.486Z" fill="#00404C"></path><path d="M306.642 232.397L291.907 230.854L286.058 230.243L285.559 230.193L285.549 230.263L285.439 231.265L285.309 232.517L306.402 234.721L306.642 232.397Z" fill="#00404C"></path><path d="M284.759 237.836L295.775 238.978L301.753 239.609L305.842 240.03L306.092 237.706L284.999 235.502L284.759 237.836Z" fill="#00404C"></path><path d="M284.209 243.145L285.849 243.316L293.366 244.097L305.292 245.349L305.462 243.756L305.532 243.025L303.473 242.805L284.449 240.821L284.209 243.145Z" fill="#00404C"></path><path d="M282.12 253.864L282.03 254.766L319.958 258.723L324.676 259.224L324.756 258.483L325.146 254.736L304.843 252.612L282.5 250.278L282.12 253.864ZM283.389 251.38L298.525 252.963L324.047 255.628L323.787 258.122L283.129 253.874V253.804L283.389 251.38Z" fill="#00404C"></path><path d="M341.431 256.94L329.065 255.647L328.795 258.282L328.705 259.134L370.352 263.481L370.722 259.995L341.431 256.94Z" fill="#00404C"></path><path d="M365.744 312.638L277.201 303.392L276.112 313.89L364.654 323.137L365.744 312.638ZM363.744 322.035L277.191 313.019L278.071 304.514L364.624 313.53L363.744 322.035Z" fill="#00404C"></path><path d="M306.852 367.775L313.32 368.447L313.99 361.975L313 361.865L312.43 367.345L306.962 366.774L306.852 367.775Z" fill="#00404C"></path><path d="M311.5 323.107L316.969 323.678L316.399 329.157L317.389 329.257L318.068 322.786L311.6 322.105L311.5 323.107Z" fill="#00404C"></path><path d="M315.265 340.055L314.131 350.956L315.126 351.06L316.26 340.159L315.265 340.055Z" fill="#00404C"></path><path d="M360.115 366.784L359.126 366.684L358.546 372.163L353.078 371.592L352.978 372.594L359.446 373.265L360.115 366.784Z" fill="#00404C"></path><path d="M333.408 369.529L333.305 370.527L343.138 371.554L343.242 370.556L333.408 369.529Z" fill="#00404C"></path><path d="M317.689 362.356L317.019 368.837L323.477 369.509L323.587 368.517L318.118 367.946L318.688 362.466L317.689 362.356Z" fill="#00404C"></path><path d="M319.978 340.583L318.844 351.483L319.839 351.587L320.973 340.686L319.978 340.583Z" fill="#00404C"></path><path d="M328.125 324.839L328.225 323.848L321.767 323.167L321.098 329.648L322.087 329.748L322.657 324.268L328.125 324.839Z" fill="#00404C"></path><path d="M338.089 324.883L337.985 325.881L347.819 326.908L347.923 325.91L338.089 324.883Z" fill="#00404C"></path><path d="M363.514 334.076L364.194 327.595L357.726 326.923L357.626 327.915L363.094 328.486L362.525 333.966L363.514 334.076Z" fill="#00404C"></path><path d="M361.408 344.9L360.274 355.801L361.268 355.904L362.402 345.004L361.408 344.9Z" fill="#00404C"></path><path d="M262.096 353.18C262.317 353.556 262.557 353.92 262.816 354.272C264.883 357.111 267.91 359.101 271.333 359.871C271.653 359.952 271.983 360.012 272.333 360.062C272.958 360.161 273.589 360.214 274.222 360.222C276.566 360.274 278.887 359.752 280.985 358.704C283.082 357.655 284.894 356.109 286.262 354.202C287.63 352.294 288.514 350.081 288.837 347.754C289.16 345.427 288.913 343.057 288.117 340.847C287.32 338.637 285.999 336.655 284.267 335.072C282.535 333.489 280.444 332.353 278.175 331.761C275.907 331.169 273.528 331.14 271.246 331.676C268.963 332.212 266.845 333.297 265.075 334.837C264.672 335.198 264.289 335.579 263.925 335.979C263.499 336.439 263.105 336.928 262.746 337.442C261.547 339.134 260.727 341.064 260.341 343.103C259.954 345.141 260.011 347.238 260.506 349.253C260.725 350.135 261.03 350.994 261.416 351.817C261.617 352.284 261.844 352.739 262.096 353.18ZM273.582 338.223L274.512 338.965L282.04 344.925L272.593 356.666L270.203 335.579L273.582 338.223Z" fill="#00404C"></path><path d="M270.223 375.579C270.137 376.464 270.404 377.347 270.966 378.034C271.529 378.721 272.34 379.157 273.222 379.246L354.097 387.691C354.98 387.777 355.861 387.51 356.547 386.946C357.233 386.383 357.668 385.57 357.756 384.685C357.843 383.801 357.575 382.918 357.013 382.231C356.451 381.543 355.64 381.108 354.757 381.019L273.922 372.644C273.043 372.543 272.16 372.795 271.467 373.345C270.773 373.895 270.326 374.699 270.223 375.579Z" fill="#00404C"></path><path d="M370.462 267.007L300.564 259.714L281.72 257.711L281.41 260.656L277.411 299.485L366.154 308.751L370.462 267.007ZM282.61 258.843L294.076 260.035L369.373 267.899L368.433 276.915L281.67 267.899L282.42 260.646L282.61 258.843ZM278.471 298.623L280.98 274.481L367.743 283.496L365.234 307.669L278.471 298.623Z" fill="#00404C"></path><path d="M285.439 199.027C296.195 198.717 304.893 197.665 304.873 196.683C304.853 195.702 296.095 195.151 285.329 195.461C274.562 195.772 265.865 196.824 265.895 197.805C265.925 198.787 274.672 199.338 285.439 199.027Z" fill="#00404C"></path><path d="M218 339.275C222.568 329.829 226.227 318.328 221.389 313.9C219.039 311.606 215.39 311.126 210.612 312.468C205.937 313.879 201.504 315.997 197.466 318.749C191.468 310.504 183.56 302.62 177.712 304.334C174.533 305.165 172.244 308.02 170.904 312.839C169.642 317.775 169.166 322.88 169.495 327.965C163.86 328.551 158.345 329.976 153.13 332.193C148.001 334.387 145.262 337.572 145.422 341.209C145.669 343.43 146.647 345.506 148.201 347.109C151.99 351.314 156.53 354.773 161.587 357.307C159.769 361.742 158.523 366.391 157.878 371.142C157.129 376.671 158.458 380.668 161.617 382.381C162.79 382.988 164.097 383.288 165.416 383.253C166.314 383.241 167.209 383.16 168.095 383.012C173.409 381.968 178.49 379.966 183.09 377.102C186.094 381.349 189.662 385.164 193.697 388.442C196.586 390.766 199.365 391.958 201.815 391.958C203.015 391.969 204.197 391.654 205.234 391.047C207.068 389.79 208.433 387.958 209.112 385.837C211.385 379.996 212.492 373.764 212.371 367.495C214.011 367.335 215.65 367.124 217.25 366.874C227.937 365.161 233.825 362.005 234.734 357.547C235.494 354.352 234.045 350.986 230.436 347.53C226.741 344.151 222.546 341.366 218 339.275ZM211.422 315.363C212.72 314.976 214.066 314.767 215.42 314.742C216.861 314.654 218.279 315.136 219.369 316.084C221.638 318.168 221.019 324.189 217.67 332.603C216.95 334.397 216.14 336.22 215.28 338.003C213.131 337.061 210.992 336.21 208.932 335.418L206.573 334.517C206.463 334.206 206.363 333.886 206.253 333.575C204.36 329.214 202.014 325.064 199.255 321.193C202.988 318.635 207.091 316.668 211.422 315.363ZM181.511 368.757C180.751 367.265 180.061 365.752 179.432 364.169C184.2 365.502 188.569 366.403 191.928 366.994C189.383 369.155 186.713 371.162 183.93 373.005C183.08 371.642 182.251 370.21 181.511 368.757ZM178.142 360.683C176.244 354.846 174.882 348.847 174.073 342.761C177.612 338.727 181.47 334.985 185.61 331.572C191.933 332.765 198.136 334.525 204.144 336.831C205.144 339.836 205.843 342.902 206.493 345.847C206.863 347.52 207.223 349.223 207.553 350.946C203.65 355.743 199.403 360.25 194.847 364.43C189.201 363.558 183.62 362.306 178.142 360.683ZM173.324 337.182C173.064 335.058 172.824 332.894 172.654 330.71C173.553 330.66 174.443 330.64 175.343 330.64H176.143C177.992 330.64 179.832 330.8 181.651 331.001C178.807 333.464 176.097 336.079 173.533 338.834L173.324 337.182ZM174.623 359.561C171.502 358.515 168.444 357.288 165.466 355.885C166.32 354.038 167.284 352.245 168.355 350.515C169.332 348.929 170.39 347.394 171.524 345.917C172.248 350.53 173.283 355.089 174.623 359.561ZM188.619 329.097C189.439 328.436 190.248 327.785 191.068 327.144C192.887 325.711 194.757 324.269 196.686 322.896C198.989 326.145 201.025 329.576 202.774 333.154C198.154 331.488 193.429 330.133 188.629 329.097H188.619ZM208.223 354.803C208.747 358.086 209.081 361.398 209.222 364.72C205.717 365.004 202.198 365.061 198.686 364.89C202.041 361.696 205.227 358.329 208.233 354.803H208.223ZM209.412 345.176C208.902 342.912 208.343 340.537 207.663 338.163L207.803 338.223C209.802 338.985 211.802 339.806 213.881 340.708C212.531 343.312 211.152 345.717 209.932 347.6C209.772 346.789 209.602 345.977 209.422 345.176H209.412ZM173.793 313.64C174.503 311.095 175.893 307.91 178.512 307.229C182.631 306.027 189.439 312.989 194.957 320.462C192.957 321.885 191.038 323.357 189.229 324.78C187.729 325.948 186.236 327.15 184.75 328.386C181.918 327.943 179.059 327.695 176.193 327.645C174.953 327.645 173.713 327.645 172.474 327.735C172.167 322.996 172.612 318.239 173.793 313.64ZM150.491 345.126C149.393 344.015 148.666 342.59 148.411 341.048C148.281 337.883 152.49 335.729 154.309 334.948C159.205 332.858 164.383 331.508 169.675 330.941C169.845 333.205 170.095 335.418 170.354 337.532C170.524 338.965 170.704 340.397 170.914 341.84C169.044 344.077 167.333 346.443 165.796 348.922C164.689 350.729 163.687 352.599 162.797 354.522C158.152 352.176 153.98 348.991 150.491 345.126ZM167.605 380.007C166.091 380.383 164.497 380.274 163.047 379.697C160.268 378.194 160.578 373.466 160.847 371.502C161.45 367.081 162.602 362.753 164.276 358.619C168.013 360.368 171.864 361.861 175.803 363.087C176.663 365.482 177.664 367.824 178.802 370.1C179.582 371.622 180.441 373.105 181.361 374.548C177.138 377.176 172.479 379.025 167.605 380.007ZM206.313 384.665C205.723 386.098 204.964 387.671 203.684 388.412C200.965 390.015 197.086 387.3 195.557 386.058C191.76 383 188.397 379.437 185.56 375.469C189.151 373.11 192.565 370.492 195.777 367.635L196.226 367.705C198.247 367.935 200.281 368.039 202.315 368.016C204.464 368.016 206.863 367.936 209.312 367.756C209.403 373.533 208.385 379.273 206.313 384.665ZM231.775 356.856C230.896 361.144 221.449 363.478 212.261 364.45C212.046 360.176 211.538 355.922 210.742 351.717C212.95 348.62 214.925 345.362 216.65 341.97C220.92 343.92 224.862 346.522 228.336 349.684C230.256 351.507 232.405 354.222 231.775 356.856Z" fill="#00404C"></path><path d="M192.008 339.586C188.699 337.933 183.81 340.587 182.011 343.423C181.362 344.439 181.004 345.615 180.975 346.821C180.947 348.028 181.25 349.219 181.851 350.265C182.951 351.789 184.51 352.92 186.3 353.49C188.235 354.364 190.394 354.612 192.478 354.202C193.906 353.795 195.165 352.936 196.066 351.754C196.967 350.571 197.461 349.128 197.476 347.64C197.476 344.825 194.537 340.878 192.008 339.586Z" fill="#00404C"></path><path d="M139.134 301.058C138.968 300.704 138.933 300.303 139.034 299.925C139.201 299.618 139.465 299.375 139.784 299.234L142.553 297.631L140.094 291.831C138.664 292.435 137.354 293.29 136.225 294.356C134.856 292.263 133.061 290.484 130.957 289.136L134.566 285.29L129.567 281.854C128.266 283.056 127.103 284.4 126.098 285.861C123.476 284.577 120.608 283.877 117.691 283.807L119.16 277.857C117.321 277.925 115.479 277.898 113.642 277.776C113.422 279.983 113.492 282.21 113.852 284.398C111.218 284.07 108.548 284.574 106.214 285.841C105.277 284.232 104.455 282.558 103.755 280.832L100.636 282.485C100.296 282.655 99.9264 282.865 99.8364 283.236C99.8078 283.531 99.8782 283.827 100.036 284.078L102.156 288.365C99.5424 289.239 97.2579 290.893 95.6077 293.103C94.3157 292.091 93.1389 290.938 92.0988 289.667L87.9001 294.506L93.9782 299.024C92.5668 300.732 91.522 302.713 90.9092 304.844L84.9111 304.964C84.3433 306.583 83.974 308.265 83.8114 309.973L90.5693 310.644C90.6893 312.007 90.7992 313.369 90.9092 314.732C91.0065 315.059 90.9759 315.41 90.8236 315.716C90.6714 316.021 90.4089 316.256 90.0894 316.375L86.7705 318.308C88.615 319.829 89.7861 322.018 90.0295 324.399C91.7213 323.848 93.3217 323.048 94.778 322.025L98.5768 325.961C98.8777 326.23 99.099 326.577 99.2166 326.963C99.2592 327.45 99.1359 327.938 98.8667 328.346C98.027 329.938 97.1073 331.491 96.1276 333.004C96.9517 332.99 97.7703 333.14 98.5358 333.446C99.3013 333.752 99.9983 334.208 100.586 334.787C101.686 333.355 102.785 331.912 103.895 330.479C105.973 331.869 108.396 332.65 110.893 332.733C110.803 334.567 110.703 336.4 110.613 338.233L115.741 338.974C115.991 337.161 116.251 335.338 116.501 333.515L124.149 332.653C124.489 332.577 124.846 332.63 125.149 332.804C125.376 333.027 125.524 333.319 125.568 333.635L126.198 336.31C128.222 335.407 130.177 334.355 132.046 333.164C131.676 331.672 131.065 330.251 130.237 328.957C132.096 327.586 133.814 326.032 135.365 324.319L138.904 326.903L142.083 323.828C142.217 323.731 142.328 323.605 142.406 323.459C142.484 323.313 142.527 323.152 142.533 322.986C142.466 322.73 142.305 322.509 142.083 322.365C140.964 321.534 138.814 320.231 138.494 318.769C138.174 317.306 139.324 315.082 139.704 313.76C139.728 313.583 139.812 313.42 139.944 313.299C140.103 313.214 140.285 313.182 140.464 313.209L144.802 313.479C144.932 311.336 145.052 309.182 145.182 307.038L139.904 307.379C140.043 305.242 139.782 303.098 139.134 301.058ZM126.908 325.451C122.731 328.058 117.808 329.2 112.912 328.696C109.285 328.231 105.849 326.795 102.968 324.538C100.086 322.282 97.8647 319.289 96.5374 315.874C95.3034 312.422 95.0509 308.694 95.8082 305.107C96.5655 301.519 98.3028 298.213 100.826 295.558C103.425 292.991 106.701 291.221 110.27 290.456C113.838 289.691 117.55 289.963 120.97 291.24C125.638 293.093 129.357 296.79 132.396 300.797C133.286 301.91 134.02 303.14 134.576 304.453C137.605 312.458 134.026 321.083 126.908 325.451Z" fill="#00404C"></path><path d="M123.829 295.979L114.322 298.984C113.712 301.358 113.652 304.233 113.182 306.637C113.182 306.437 111.983 305.395 111.803 305.205L110.363 303.722C109.593 302.755 108.743 301.854 107.824 301.028L101.356 303.272L96.4974 304.834L97.1772 305.415C104.655 311.837 111.973 318.549 119.03 325.371L119.8 326.112L119.88 325.05C119.957 324.286 120.074 323.527 120.23 322.776C121.17 317.978 122.309 313.189 123.409 308.561C124.409 304.464 125.408 300.226 126.258 295.989L126.428 295.147L123.819 295.989L123.829 295.979ZM122.429 308.33C121.33 312.969 120.19 317.767 119.25 322.586C119.16 323.036 119.08 323.487 119 323.948C112.402 317.567 105.505 311.266 98.4968 305.215L100.136 304.684L103.135 303.682C105.065 305.586 107.134 307.389 109.074 309.142C109.743 309.723 110.433 310.334 111.183 310.885C111.443 311.075 111.723 311.256 111.993 311.446C112.263 311.636 112.702 311.917 112.992 312.177C114.085 313.056 115.083 314.047 115.971 315.132L116.571 315.824L116.831 314.952C118.493 309.451 119.72 303.827 120.5 298.132L122.619 297.441L125.139 296.63C124.279 300.567 123.339 304.524 122.429 308.33Z" fill="#00404C"></path><path d="M352.768 206.751V212.211H354.768V206.751V200.189H352.768V206.751Z" fill="#00404C"></path><path d="M354.768 55.9348H352.768V67.956H354.768V55.9348Z" fill="#00404C"></path><path d="M354.768 79.9773H352.768V91.9985H354.768V79.9773Z" fill="#00404C"></path><path d="M354.768 104.02H352.768V116.041H354.768V104.02Z" fill="#00404C"></path><path d="M354.768 128.062H352.768V140.083H354.768V128.062Z" fill="#00404C"></path><path d="M313.57 26.042H301.574V28.0455H313.57V26.042Z" fill="#00404C"></path><path d="M282.2 28.0455H289.577V26.042H280.2V30.6702H282.2V28.0455Z" fill="#00404C"></path><path d="M354.768 152.104H352.768V164.126H354.768V152.104Z" fill="#00404C"></path><path d="M354.768 176.147H352.768V188.168H354.768V176.147Z" fill="#00404C"></path><path d="M354.768 248.274H352.768V255.116H354.768V248.274Z" fill="#00404C"></path><path d="M352.768 225.264V230.333V236.253H354.768V230.333V225.454V224.232H352.768V225.264Z" fill="#00404C"></path><path d="M282.2 46.969V42.6914H280.2V46.969V54.7126H282.2V46.969Z" fill="#00404C"></path><path d="M74.4343 144.601C75.2408 143.379 76.0638 142.167 76.9036 140.965C74.5901 142.056 72.3435 143.283 70.1757 144.641L74.4343 144.601Z" fill="#00404C"></path><path d="M31.9175 140.855C37.6357 134.694 43.5739 128.833 49.662 123.043L49.9019 122.813C50.9016 121.811 51.9013 120.899 52.901 119.958C56.9997 116.171 61.1684 112.445 65.4071 108.818H67.5264C63.2178 113.106 59.0091 117.503 54.8804 121.961C53.2809 123.704 51.698 125.454 50.1319 127.211L49.8419 127.531C46.363 131.438 42.9541 135.385 39.6451 139.412C43.0998 138.077 46.64 136.976 50.2418 136.116L50.6417 136.026C52.4411 135.605 54.2506 135.225 56.07 134.924L67.9863 132.971L59.429 141.897C58.5292 142.838 57.6395 143.8 56.7598 144.772L62.7579 144.711L64.4074 142.097C69.9657 133.291 76.0038 124.937 82.3018 116.782C84.4412 114.027 86.6305 111.302 88.8398 108.598H91.0991C88.8798 111.843 86.7105 115.119 84.5911 118.425C81.2422 123.694 77.9932 129.034 74.9141 134.453C78.8296 132.167 82.9496 130.252 87.2203 128.733L98.4868 124.726L91.579 135.044C89.5796 138.13 87.5802 141.285 85.7908 144.491L107.904 144.241C107.904 143.569 107.994 142.898 108.054 142.237C108.184 140.855 108.404 139.452 108.664 138.06C108.924 136.667 109.203 135.475 109.563 134.123C109.623 133.902 109.683 133.672 109.753 133.452C107.292 134.392 104.944 135.608 102.755 137.078L94.4881 142.638L98.9766 134.123C101.976 128.413 104.585 122.322 107.124 116.241C108.214 113.627 109.273 111.002 110.323 108.377H111.793C111.023 111.282 110.263 114.178 109.463 117.063C108.404 120.869 107.314 124.666 106.114 128.463C109.053 126.685 112.204 125.285 115.492 124.295L123.309 121.961L119.47 129.885C118.641 131.753 118.134 133.748 117.971 135.786C117.851 136.898 117.761 138.09 117.701 139.282C117.641 140.474 117.641 141.476 117.701 142.588C117.701 143.119 117.761 143.66 117.811 144.191L141.174 143.97C140.924 117.173 117.101 107.906 117.101 107.906L52.5611 108.508H51.3715H49.1222H48.9222H45.2234L31.6176 108.638V109.179L31.9175 140.855Z" fill="#00404C"></path><path d="M339.282 32.2928C340.318 32.8651 341.529 33.0328 342.681 32.7637C343.16 32.5818 343.595 32.3021 343.96 31.9422C344.452 31.5109 344.846 30.9796 345.117 30.3837C345.388 29.7877 345.528 29.1409 345.53 28.4861C345.508 27.9609 345.362 27.4485 345.103 26.9913C344.844 26.5342 344.48 26.1455 344.041 25.8575C343.602 25.5696 343.101 25.3906 342.579 25.3356C342.058 25.2805 341.53 25.3509 341.041 25.5409C340.321 25.8447 339.676 26.3029 339.152 26.8833C338.365 27.6311 337.818 28.5973 337.582 29.6582C337.477 30.1512 337.537 30.6652 337.752 31.1208C338.123 31.6662 338.659 32.0773 339.282 32.2928Z" fill="#00404C"></path></svg> 